<svg xmlns="http://www.w3.org/2000/svg" xmlns:xlink="http://www.w3.org/1999/xlink" width="260" zoomAndPan="magnify" viewBox="0 0 194.87999 74.999997" height="100" preserveAspectRatio="xMidYMid meet" version="1.0"><defs><g/><clipPath id="id1"><path d="M 0 0.0234375 L 37.476562 0.0234375 L 37.476562 37.5 L 0 37.5 Z M 0 0.0234375 " clip-rule="nonzero"/></clipPath><clipPath id="id2"><path d="M 187 63 L 194.761719 63 L 194.761719 74.976562 L 187 74.976562 Z M 187 63 " clip-rule="nonzero"/></clipPath></defs><g clip-path="url(#id1)"><path fill="rgb(21.958923%, 71.369934%, 100%)" d="M 36.640625 12.125 C 36.617188 12.085938 36.582031 12.050781 36.558594 12.007812 C 36.003906 11.292969 35.074219 10.902344 34.191406 11.003906 C 33.21875 11.113281 32.496094 11.597656 32.113281 11.878906 C 32.113281 11.878906 29.738281 13.589844 25.855469 15.234375 C 25.191406 15.515625 25.082031 15.402344 25.058594 15.371094 C 25.03125 15.335938 25.023438 15.285156 25.050781 15.214844 C 25.527344 13.539062 26.046875 11.863281 26.359375 10.152344 C 26.734375 8.253906 26.96875 6.332031 27.0625 4.398438 C 27.113281 3.417969 27.105469 2.378906 26.59375 1.554688 C 25.796875 0.261719 23.757812 0.0234375 22.683594 1.09375 C 22.015625 1.769531 21.769531 2.753906 21.570312 3.691406 C 21.308594 4.882812 21.066406 6.082031 20.847656 7.285156 C 20.738281 7.886719 20.65625 8.5 20.578125 9.113281 C 20.480469 9.921875 20.4375 10.449219 20.234375 10.492188 C 20.160156 10.507812 20.027344 10.484375 19.808594 10.101562 C 19.582031 9.710938 19.363281 9.316406 19.128906 8.933594 C 18.699219 8.21875 18.257812 7.523438 17.785156 6.839844 C 16.855469 5.46875 15.832031 4.160156 14.726562 2.917969 C 14.070312 2.175781 13.351562 1.445312 12.433594 1.105469 C 11.699219 0.832031 10.808594 0.882812 10.171875 1.367188 C 9.492188 1.871094 8.90625 2.304688 8.972656 3.265625 C 9.011719 3.863281 9.28125 4.421875 9.550781 4.960938 C 10.046875 5.921875 10.589844 6.867188 11.175781 7.777344 C 11.1875 7.792969 11.554688 8.339844 12.277344 9.421875 C 12.804688 10.203125 13.242188 10.859375 13.164062 10.917969 C 13.132812 10.945312 13.046875 10.816406 12.789062 10.6875 C 12.535156 10.570312 12.292969 10.449219 12.042969 10.347656 C 11.539062 10.144531 11.027344 9.957031 10.507812 9.785156 C 9.476562 9.4375 8.417969 9.15625 7.351562 8.933594 C 6.699219 8.796875 6.042969 8.6875 5.390625 8.601562 C 4.601562 8.5 3.769531 8.433594 3.035156 8.730469 C 2.195312 9.070312 1.558594 9.886719 1.421875 10.800781 C 1.296875 11.710938 1.675781 12.671875 2.386719 13.242188 C 2.949219 13.683594 3.664062 13.878906 4.351562 14.066406 C 6.722656 14.730469 9.046875 15.558594 11.3125 16.554688 C 11.109375 16.46875 10.261719 16.910156 10.046875 16.988281 C 9.582031 17.15625 9.132812 17.335938 8.679688 17.523438 C 7.773438 17.898438 6.882812 18.316406 6.019531 18.765625 C 4.402344 19.609375 2.464844 20.578125 1.253906 22 C 0.375 23.046875 0.199219 24.578125 1.105469 25.675781 C 1.691406 26.382812 2.648438 26.757812 3.546875 26.621094 C 4.332031 26.503906 5.03125 26.035156 5.707031 25.609375 C 7.4375 24.519531 9.273438 23.609375 11.1875 22.894531 C 11.824219 22.65625 12.417969 22.171875 12.644531 22.382812 C 12.878906 22.605469 12.503906 23.371094 12.367188 23.660156 C 10.675781 27.234375 10.40625 31.898438 10.363281 32.351562 C 10.230469 33.6875 10.210938 35.175781 11.066406 36.199219 C 12.160156 37.5 14.523438 37.289062 15.371094 35.804688 C 15.730469 35.175781 15.824219 34.425781 15.925781 33.703125 C 16.242188 31.421875 16.535156 30.28125 16.535156 30.28125 C 17.007812 27.421875 17.125 26.921875 17.351562 26.902344 C 17.578125 26.878906 17.6875 27.371094 18.484375 28.851562 C 18.683594 29.234375 19.113281 30.019531 19.714844 30.964844 C 20.578125 32.324219 21.535156 33.609375 22.59375 34.828125 C 23.289062 35.628906 24.09375 36.4375 25.132812 36.632812 C 26.652344 36.902344 28.230469 35.457031 28.109375 33.898438 C 28.0625 33.285156 27.910156 32.84375 27.464844 32.0625 C 26.558594 30.46875 24.136719 27.21875 24.050781 26.828125 C 24.050781 26.828125 24.050781 26.816406 24.050781 26.808594 C 24.117188 26.65625 25.878906 27.457031 27.933594 28.101562 C 28.363281 28.238281 29.972656 28.664062 32.070312 29.003906 C 32.859375 29.132812 33.695312 29.226562 34.453125 28.945312 C 35.9375 28.382812 36.539062 26.222656 35.550781 24.960938 C 35.039062 24.308594 34.417969 23.957031 33.335938 23.59375 C 28.832031 22.085938 26.566406 21.882812 26.527344 21.320312 C 26.492188 20.894531 27.785156 20.722656 30.6875 19.351562 C 30.855469 19.277344 32.648438 18.339844 34.8125 16.894531 C 35.703125 16.296875 36.625 15.597656 36.984375 14.578125 C 37.253906 13.777344 37.128906 12.832031 36.640625 12.125 Z M 36.640625 12.125 " fill-opacity="1" fill-rule="nonzero"/><path fill="rgb(21.958923%, 71.369934%, 100%)" d="M 13.039062 37.269531 C 12.191406 37.269531 11.414062 36.929688 10.910156 36.332031 C 10.003906 35.246094 10.019531 33.695312 10.152344 32.324219 C 10.152344 32.300781 10.164062 32.257812 10.164062 32.1875 C 10.429688 28.800781 11.144531 25.738281 12.175781 23.558594 L 12.199219 23.507812 C 12.535156 22.785156 12.527344 22.585938 12.503906 22.527344 C 12.410156 22.511719 12.117188 22.664062 11.914062 22.773438 C 11.714844 22.875 11.488281 22.996094 11.261719 23.082031 C 9.367188 23.789062 7.539062 24.699219 5.828125 25.78125 L 5.675781 25.871094 C 5.03125 26.28125 4.359375 26.707031 3.578125 26.816406 C 2.613281 26.960938 1.582031 26.5625 0.945312 25.796875 C 0.0234375 24.671875 0.0820312 23.046875 1.097656 21.847656 C 2.277344 20.460938 4.097656 19.507812 5.707031 18.671875 L 5.917969 18.5625 C 6.800781 18.101562 7.695312 17.683594 8.59375 17.308594 C 9.082031 17.113281 9.523438 16.9375 9.96875 16.773438 C 10.019531 16.757812 10.121094 16.714844 10.230469 16.664062 C 10.378906 16.59375 10.523438 16.535156 10.640625 16.484375 C 8.59375 15.617188 6.464844 14.867188 4.292969 14.261719 C 3.621094 14.074219 2.855469 13.871094 2.253906 13.402344 C 1.480469 12.789062 1.070312 11.753906 1.214844 10.765625 C 1.355469 9.777344 2.042969 8.902344 2.949219 8.527344 C 3.746094 8.203125 4.636719 8.289062 5.40625 8.382812 C 6.0625 8.464844 6.730469 8.578125 7.386719 8.714844 C 8.492188 8.941406 9.558594 9.234375 10.566406 9.574219 C 11.085938 9.742188 11.605469 9.929688 12.109375 10.144531 C 12.292969 10.21875 12.476562 10.304688 12.660156 10.390625 C 12.484375 10.109375 12.257812 9.777344 12.089844 9.53125 C 11.707031 8.953125 11.421875 8.527344 11.234375 8.253906 C 11.050781 7.972656 11 7.90625 10.984375 7.878906 C 10.398438 6.96875 9.84375 6.015625 9.347656 5.046875 C 9.054688 4.457031 8.785156 3.886719 8.746094 3.265625 C 8.667969 2.183594 9.332031 1.699219 10.027344 1.179688 C 10.683594 0.6875 11.621094 0.566406 12.484375 0.890625 C 13.476562 1.257812 14.230469 2.050781 14.859375 2.765625 C 15.964844 4.015625 17.007812 5.34375 17.9375 6.714844 C 18.390625 7.367188 18.835938 8.058594 19.289062 8.816406 C 19.457031 9.089844 19.625 9.378906 19.78125 9.660156 C 19.839844 9.769531 19.910156 9.878906 19.96875 9.992188 C 20.058594 10.152344 20.125 10.230469 20.160156 10.253906 C 20.226562 10.109375 20.277344 9.691406 20.320312 9.316406 L 20.34375 9.078125 C 20.4375 8.332031 20.519531 7.761719 20.613281 7.242188 C 20.824219 6.101562 21.066406 4.890625 21.335938 3.640625 C 21.550781 2.617188 21.8125 1.640625 22.507812 0.941406 C 23.0625 0.390625 23.890625 0.125 24.746094 0.226562 C 25.601562 0.328125 26.332031 0.773438 26.742188 1.445312 C 27.296875 2.347656 27.296875 3.445312 27.246094 4.414062 C 27.15625 6.355469 26.921875 8.304688 26.542969 10.203125 C 26.28125 11.648438 25.863281 13.089844 25.460938 14.476562 C 25.394531 14.722656 25.316406 14.960938 25.25 15.207031 C 25.335938 15.191406 25.496094 15.15625 25.753906 15.046875 C 29.570312 13.429688 31.945312 11.734375 31.96875 11.71875 C 32.429688 11.378906 33.167969 10.917969 34.148438 10.808594 C 35.105469 10.695312 36.105469 11.121094 36.699219 11.886719 L 36.714844 11.914062 C 36.726562 11.929688 36.734375 11.9375 36.742188 11.957031 C 36.757812 11.972656 36.773438 12 36.792969 12.03125 C 37.3125 12.789062 37.453125 13.796875 37.160156 14.671875 C 36.773438 15.777344 35.792969 16.5 34.90625 17.097656 C 32.714844 18.5625 30.929688 19.488281 30.746094 19.574219 C 29.496094 20.160156 28.554688 20.527344 27.867188 20.792969 C 27.304688 21.011719 26.777344 21.21875 26.710938 21.328125 C 26.777344 21.515625 27.824219 21.796875 28.847656 22.066406 C 29.957031 22.367188 31.464844 22.773438 33.378906 23.414062 C 34.570312 23.8125 35.171875 24.195312 35.691406 24.851562 C 36.195312 25.488281 36.355469 26.402344 36.113281 27.285156 C 35.871094 28.179688 35.265625 28.878906 34.503906 29.167969 C 33.679688 29.472656 32.792969 29.363281 32.011719 29.234375 C 29.832031 28.878906 28.238281 28.453125 27.84375 28.324219 C 26.921875 28.035156 26.066406 27.710938 25.367188 27.457031 C 25.007812 27.320312 24.648438 27.183594 24.386719 27.097656 C 24.640625 27.507812 25.125 28.222656 25.578125 28.871094 C 26.316406 29.941406 27.15625 31.160156 27.617188 31.96875 C 28.070312 32.765625 28.238281 33.234375 28.289062 33.890625 C 28.347656 34.691406 27.992188 35.515625 27.347656 36.121094 C 26.695312 36.71875 25.847656 36.996094 25.066406 36.851562 C 23.984375 36.648438 23.144531 35.832031 22.40625 34.980469 C 21.351562 33.761719 20.378906 32.453125 19.515625 31.089844 C 18.902344 30.136719 18.472656 29.347656 18.273438 28.960938 C 17.988281 28.433594 17.785156 28.027344 17.644531 27.730469 C 17.519531 27.472656 17.410156 27.25 17.34375 27.160156 C 17.199219 27.4375 16.988281 28.664062 16.714844 30.324219 L 16.714844 30.339844 C 16.714844 30.351562 16.417969 31.5 16.109375 33.738281 L 16.101562 33.824219 C 16 34.539062 15.898438 35.277344 15.53125 35.917969 C 15.101562 36.675781 14.265625 37.175781 13.308594 37.261719 C 13.230469 37.269531 13.132812 37.269531 13.039062 37.269531 Z M 12.503906 22.121094 C 12.613281 22.121094 12.703125 22.152344 12.789062 22.230469 C 13.097656 22.519531 12.847656 23.140625 12.578125 23.703125 L 12.554688 23.753906 C 11.539062 25.890625 10.84375 28.902344 10.582031 32.230469 C 10.574219 32.289062 10.574219 32.34375 10.574219 32.367188 C 10.449219 33.652344 10.421875 35.089844 11.226562 36.054688 C 11.699219 36.613281 12.46875 36.902344 13.289062 36.828125 C 14.113281 36.75 14.824219 36.324219 15.1875 35.695312 C 15.511719 35.125 15.605469 34.425781 15.699219 33.753906 L 15.707031 33.667969 C 16.007812 31.480469 16.292969 30.359375 16.320312 30.230469 C 16.546875 28.871094 16.695312 27.976562 16.820312 27.472656 C 16.921875 27.054688 17.03125 26.707031 17.324219 26.691406 C 17.609375 26.65625 17.734375 26.910156 18.039062 27.53125 C 18.179688 27.832031 18.382812 28.230469 18.660156 28.75 C 18.859375 29.132812 19.28125 29.90625 19.882812 30.84375 C 20.738281 32.1875 21.703125 33.484375 22.742188 34.683594 C 23.429688 35.472656 24.210938 36.242188 25.167969 36.417969 C 25.8125 36.539062 26.535156 36.300781 27.097656 35.789062 C 27.648438 35.277344 27.953125 34.582031 27.902344 33.917969 C 27.851562 33.328125 27.707031 32.921875 27.28125 32.171875 C 26.828125 31.378906 25.996094 30.171875 25.269531 29.109375 C 24.296875 27.695312 23.890625 27.089844 23.851562 26.878906 L 23.84375 26.851562 L 23.84375 26.765625 L 23.859375 26.722656 C 23.960938 26.496094 24.246094 26.589844 24.53125 26.671875 C 24.78125 26.757812 25.132812 26.886719 25.542969 27.039062 C 26.234375 27.292969 27.078125 27.609375 27.992188 27.898438 C 28.472656 28.050781 30.105469 28.46875 32.105469 28.792969 C 32.824219 28.910156 33.65625 29.015625 34.375 28.742188 C 35.015625 28.503906 35.515625 27.898438 35.726562 27.140625 C 35.929688 26.390625 35.800781 25.625 35.382812 25.089844 C 34.921875 24.503906 34.367188 24.164062 33.269531 23.789062 C 31.367188 23.148438 29.863281 22.75 28.765625 22.453125 C 27.0625 21.992188 26.351562 21.804688 26.316406 21.328125 C 26.28125 20.929688 26.710938 20.757812 27.742188 20.367188 C 28.421875 20.101562 29.359375 19.746094 30.59375 19.15625 C 30.761719 19.082031 32.566406 18.136719 34.695312 16.714844 C 35.527344 16.160156 36.441406 15.480469 36.785156 14.5 C 37.035156 13.761719 36.910156 12.894531 36.464844 12.246094 L 36.457031 12.238281 C 36.449219 12.21875 36.441406 12.210938 36.429688 12.195312 C 36.414062 12.179688 36.398438 12.152344 36.382812 12.125 C 35.871094 11.480469 35.023438 11.113281 34.207031 11.207031 C 33.328125 11.308594 32.65625 11.734375 32.230469 12.042969 C 32.203125 12.058594 29.789062 13.785156 25.929688 15.421875 C 25.34375 15.667969 25.03125 15.683594 24.882812 15.488281 C 24.816406 15.394531 24.796875 15.265625 24.839844 15.140625 C 24.914062 14.875 24.992188 14.605469 25.066406 14.339844 C 25.46875 12.960938 25.878906 11.53125 26.140625 10.101562 C 26.519531 8.21875 26.753906 6.296875 26.84375 4.371094 C 26.894531 3.46875 26.894531 2.449219 26.410156 1.65625 C 26.066406 1.105469 25.4375 0.722656 24.714844 0.636719 C 23.992188 0.550781 23.28125 0.773438 22.820312 1.230469 C 22.207031 1.84375 21.964844 2.765625 21.761719 3.726562 C 21.492188 4.96875 21.25 6.175781 21.039062 7.308594 C 20.949219 7.828125 20.863281 8.382812 20.773438 9.128906 L 20.746094 9.367188 C 20.648438 10.175781 20.597656 10.621094 20.269531 10.695312 C 19.976562 10.765625 19.757812 10.449219 19.613281 10.203125 C 19.554688 10.09375 19.488281 9.980469 19.429688 9.871094 C 19.269531 9.597656 19.113281 9.308594 18.945312 9.035156 C 18.492188 8.289062 18.054688 7.605469 17.609375 6.953125 C 16.6875 5.597656 15.664062 4.277344 14.566406 3.042969 C 13.96875 2.371094 13.257812 1.625 12.359375 1.292969 C 11.628906 1.019531 10.832031 1.113281 10.296875 1.53125 C 9.640625 2.015625 9.121094 2.398438 9.179688 3.242188 C 9.222656 3.777344 9.457031 4.289062 9.734375 4.847656 C 10.230469 5.800781 10.765625 6.746094 11.351562 7.648438 L 11.363281 7.65625 C 11.386719 7.691406 11.472656 7.828125 11.597656 8.007812 C 11.78125 8.28125 12.066406 8.703125 12.453125 9.285156 C 12.710938 9.667969 12.957031 10.03125 13.132812 10.3125 C 13.339844 10.644531 13.5 10.917969 13.300781 11.070312 C 13.15625 11.183594 13.015625 11.070312 12.957031 11.027344 C 12.898438 10.984375 12.828125 10.925781 12.703125 10.867188 L 12.585938 10.808594 C 12.375 10.707031 12.175781 10.613281 11.972656 10.527344 C 11.480469 10.320312 10.96875 10.136719 10.457031 9.972656 C 9.464844 9.640625 8.410156 9.351562 7.328125 9.128906 C 6.683594 8.996094 6.027344 8.882812 5.382812 8.796875 C 4.660156 8.703125 3.832031 8.628906 3.125 8.910156 C 2.355469 9.222656 1.765625 9.972656 1.640625 10.808594 C 1.523438 11.648438 1.875 12.527344 2.53125 13.054688 C 3.058594 13.472656 3.746094 13.660156 4.417969 13.835938 C 6.816406 14.511719 9.164062 15.34375 11.402344 16.332031 C 11.472656 16.390625 11.503906 16.484375 11.480469 16.570312 C 11.445312 16.671875 11.34375 16.730469 11.234375 16.722656 L 11.253906 16.730469 C 11.128906 16.714844 10.605469 16.953125 10.40625 17.039062 C 10.28125 17.097656 10.179688 17.140625 10.113281 17.164062 C 9.675781 17.328125 9.230469 17.496094 8.753906 17.703125 C 7.871094 18.066406 6.984375 18.484375 6.113281 18.9375 L 5.894531 19.046875 C 4.316406 19.863281 2.539062 20.792969 1.40625 22.121094 C 0.527344 23.167969 0.46875 24.5625 1.253906 25.523438 C 1.800781 26.179688 2.679688 26.519531 3.503906 26.390625 C 4.191406 26.289062 4.828125 25.890625 5.441406 25.5 L 5.589844 25.40625 C 7.328125 24.308594 9.179688 23.386719 11.101562 22.671875 C 11.3125 22.597656 11.511719 22.484375 11.714844 22.382812 C 12.015625 22.253906 12.285156 22.121094 12.503906 22.121094 Z M 12.503906 22.121094 " fill-opacity="1" fill-rule="nonzero"/></g><g fill="rgb(100%, 100%, 100%)" fill-opacity="1"><g transform="translate(40.193703, 46.626528)"><g><path d="M 11.84375 0.515625 C 9.570312 0.515625 6.800781 0.171875 3.53125 -0.515625 L 1.953125 -0.828125 L 2.5625 -5.484375 C 6.457031 -4.960938 9.4375 -4.703125 11.5 -4.703125 C 14.570312 -4.703125 16.109375 -5.976562 16.109375 -8.53125 C 16.109375 -9.570312 15.703125 -10.335938 14.890625 -10.828125 C 14.078125 -11.328125 12.710938 -11.851562 10.796875 -12.40625 C 8.503906 -13.039062 6.695312 -13.75 5.375 -14.53125 C 4.050781 -15.320312 3.09375 -16.253906 2.5 -17.328125 C 1.90625 -18.398438 1.609375 -19.734375 1.609375 -21.328125 C 1.609375 -24.234375 2.492188 -26.425781 4.265625 -27.90625 C 6.035156 -29.382812 8.515625 -30.125 11.703125 -30.125 C 12.953125 -30.125 14.242188 -30.039062 15.578125 -29.875 C 16.921875 -29.71875 18.878906 -29.410156 21.453125 -28.953125 L 20.984375 -24.203125 C 17.003906 -24.671875 14.113281 -24.90625 12.3125 -24.90625 C 9.15625 -24.90625 7.578125 -23.859375 7.578125 -21.765625 C 7.578125 -21.035156 7.835938 -20.4375 8.359375 -19.96875 C 8.878906 -19.507812 9.53125 -19.128906 10.3125 -18.828125 C 11.101562 -18.523438 12.425781 -18.082031 14.28125 -17.5 C 16.28125 -16.863281 17.832031 -16.195312 18.9375 -15.5 C 20.039062 -14.800781 20.835938 -13.9375 21.328125 -12.90625 C 21.816406 -11.875 22.0625 -10.546875 22.0625 -8.921875 C 22.0625 -5.878906 21.140625 -3.546875 19.296875 -1.921875 C 17.460938 -0.296875 14.976562 0.515625 11.84375 0.515625 Z M 11.84375 0.515625 "/></g></g></g><g fill="rgb(100%, 100%, 100%)" fill-opacity="1"><g transform="translate(62.78654, 46.626528)"><g><path d="M 2.703125 -21.765625 L 8.484375 -21.765625 L 8.484375 -20.59375 C 9.617188 -21.257812 10.570312 -21.707031 11.34375 -21.9375 C 12.113281 -22.164062 12.929688 -22.28125 13.796875 -22.28125 C 16.585938 -22.28125 18.65625 -21.359375 20 -19.515625 C 21.351562 -17.679688 22.03125 -14.742188 22.03125 -10.703125 C 22.03125 -7.921875 21.695312 -5.71875 21.03125 -4.09375 C 20.363281 -2.46875 19.316406 -1.289062 17.890625 -0.5625 C 16.472656 0.15625 14.585938 0.515625 12.234375 0.515625 C 11.066406 0.515625 9.832031 0.398438 8.53125 0.171875 L 8.53125 9.140625 L 2.703125 9.140625 Z M 11.671875 -4.53125 C 13.296875 -4.53125 14.441406 -5 15.109375 -5.9375 C 15.773438 -6.882812 16.109375 -8.472656 16.109375 -10.703125 C 16.109375 -12.910156 15.800781 -14.519531 15.1875 -15.53125 C 14.582031 -16.550781 13.582031 -17.0625 12.1875 -17.0625 C 11.175781 -17.0625 10.128906 -16.84375 9.046875 -16.40625 L 8.53125 -16.1875 L 8.53125 -4.78125 C 9.832031 -4.613281 10.878906 -4.53125 11.671875 -4.53125 Z M 11.671875 -4.53125 "/></g></g></g><g fill="rgb(100%, 100%, 100%)" fill-opacity="1"><g transform="translate(85.379377, 46.626528)"><g><path d="M 11.234375 0.515625 C 7.835938 0.515625 5.382812 -0.335938 3.875 -2.046875 C 2.363281 -3.753906 1.609375 -6.523438 1.609375 -10.359375 C 1.609375 -14.367188 2.398438 -17.359375 3.984375 -19.328125 C 5.566406 -21.296875 8.023438 -22.28125 11.359375 -22.28125 C 14.429688 -22.28125 16.757812 -21.460938 18.34375 -19.828125 C 19.925781 -18.191406 20.71875 -15.734375 20.71875 -12.453125 L 20.28125 -8.40625 L 7.484375 -8.40625 C 7.546875 -7.382812 7.726562 -6.601562 8.03125 -6.0625 C 8.332031 -5.53125 8.820312 -5.15625 9.5 -4.9375 C 10.1875 -4.71875 11.140625 -4.609375 12.359375 -4.609375 C 13.316406 -4.609375 14.460938 -4.632812 15.796875 -4.6875 C 17.128906 -4.75 18.101562 -4.8125 18.71875 -4.875 L 19.9375 -5 L 20.03125 -0.703125 C 16.75 0.109375 13.816406 0.515625 11.234375 0.515625 Z M 14.96875 -12.84375 C 14.96875 -14.582031 14.695312 -15.789062 14.15625 -16.46875 C 13.625 -17.15625 12.675781 -17.5 11.3125 -17.5 C 9.925781 -17.5 8.941406 -17.140625 8.359375 -16.421875 C 7.773438 -15.710938 7.46875 -14.519531 7.4375 -12.84375 Z M 14.96875 -12.84375 "/></g></g></g><g fill="rgb(100%, 100%, 100%)" fill-opacity="1"><g transform="translate(106.492133, 46.626528)"><g><path d="M 2.953125 -30.46875 L 8.796875 -30.46875 L 8.796875 0 L 2.953125 0 Z M 2.953125 -30.46875 "/></g></g></g><g fill="rgb(100%, 100%, 100%)" fill-opacity="1"><g transform="translate(117.157272, 46.626528)"><g><path d="M 3.75 -16.796875 L 1.390625 -16.796875 L 1.390625 -21.765625 L 3.75 -21.765625 L 3.75 -22.71875 C 3.75 -24.84375 3.953125 -26.5 4.359375 -27.6875 C 4.765625 -28.875 5.414062 -29.722656 6.3125 -30.234375 C 7.207031 -30.742188 8.46875 -31 10.09375 -31 L 15.0625 -30.609375 L 14.96875 -25.6875 L 11.359375 -25.859375 C 10.753906 -25.859375 10.304688 -25.546875 10.015625 -24.921875 C 9.722656 -24.296875 9.578125 -23.550781 9.578125 -22.6875 L 9.578125 -21.765625 L 14.84375 -21.765625 L 14.84375 -16.796875 L 9.578125 -16.796875 L 9.578125 0 L 3.75 0 Z M 3.75 -16.796875 "/></g></g></g><g fill="rgb(100%, 100%, 100%)" fill-opacity="1"><g transform="translate(40.193703, 70.857923)"><g><path d="M 8.578125 -10.046875 L 8.578125 0 L 6.53125 0 L 2.625 -9.0625 L 2.34375 -9.0625 L 2.34375 0 L 1.234375 0 L 1.234375 -10.046875 L 3.328125 -10.046875 L 7.1875 -0.984375 L 7.46875 -0.984375 L 7.46875 -10.046875 Z M 8.578125 -10.046875 "/></g></g></g><g fill="rgb(100%, 100%, 100%)" fill-opacity="1"><g transform="translate(49.996214, 70.857923)"><g><path d="M 3.765625 0.140625 C 2.660156 0.140625 1.875 -0.144531 1.40625 -0.71875 C 0.945312 -1.289062 0.71875 -2.195312 0.71875 -3.4375 C 0.71875 -4.78125 0.960938 -5.773438 1.453125 -6.421875 C 1.953125 -7.078125 2.726562 -7.40625 3.78125 -7.40625 C 4.75 -7.40625 5.472656 -7.125 5.953125 -6.5625 C 6.429688 -6.007812 6.671875 -5.15625 6.671875 -4 L 6.625 -3.171875 L 1.828125 -3.171875 C 1.828125 -2.578125 1.890625 -2.109375 2.015625 -1.765625 C 2.148438 -1.429688 2.375 -1.1875 2.6875 -1.03125 C 3.007812 -0.882812 3.445312 -0.8125 4 -0.8125 C 4.28125 -0.8125 4.601562 -0.816406 4.96875 -0.828125 C 5.34375 -0.847656 5.679688 -0.875 5.984375 -0.90625 L 6.40625 -0.9375 L 6.4375 -0.09375 C 5.351562 0.0625 4.460938 0.140625 3.765625 0.140625 Z M 5.59375 -4.046875 C 5.59375 -4.929688 5.453125 -5.554688 5.171875 -5.921875 C 4.890625 -6.296875 4.425781 -6.484375 3.78125 -6.484375 C 3.113281 -6.484375 2.617188 -6.285156 2.296875 -5.890625 C 1.984375 -5.503906 1.820312 -4.890625 1.8125 -4.046875 Z M 5.59375 -4.046875 "/></g></g></g><g fill="rgb(100%, 100%, 100%)" fill-opacity="1"><g transform="translate(57.319088, 70.857923)"><g><path d="M 2.59375 -3.625 L 0.3125 -7.265625 L 1.515625 -7.265625 L 3.28125 -4.40625 L 5.046875 -7.265625 L 6.234375 -7.265625 L 3.9375 -3.65625 L 6.234375 0 L 5.03125 0 L 3.28125 -2.828125 L 1.515625 0 L 0.3125 0 Z M 2.59375 -3.625 "/></g></g></g><g fill="rgb(100%, 100%, 100%)" fill-opacity="1"><g transform="translate(63.873425, 70.857923)"><g><path d="M 3.359375 0.15625 C 2.859375 0.15625 2.46875 0.078125 2.1875 -0.078125 C 1.914062 -0.234375 1.71875 -0.503906 1.59375 -0.890625 C 1.476562 -1.273438 1.421875 -1.8125 1.421875 -2.5 L 1.421875 -6.3125 L 0.390625 -6.3125 L 0.390625 -7.265625 L 1.421875 -7.265625 L 1.421875 -9.484375 L 2.5 -9.484375 L 2.5 -7.265625 L 4.796875 -7.265625 L 4.796875 -6.3125 L 2.5 -6.3125 L 2.5 -2.84375 C 2.5 -2.300781 2.515625 -1.894531 2.546875 -1.625 C 2.585938 -1.363281 2.679688 -1.160156 2.828125 -1.015625 C 2.984375 -0.878906 3.222656 -0.8125 3.546875 -0.8125 L 4.828125 -0.90625 L 4.90625 0 C 4.21875 0.101562 3.703125 0.15625 3.359375 0.15625 Z M 3.359375 0.15625 "/></g></g></g><g fill="rgb(100%, 100%, 100%)" fill-opacity="1"><g transform="translate(68.963192, 70.857923)"><g/></g></g><g fill="rgb(100%, 100%, 100%)" fill-opacity="1"><g transform="translate(72.153354, 70.857923)"><g><path d="M 4.71875 0.140625 C 3.75 0.140625 2.976562 -0.0390625 2.40625 -0.40625 C 1.84375 -0.769531 1.4375 -1.328125 1.1875 -2.078125 C 0.945312 -2.828125 0.828125 -3.804688 0.828125 -5.015625 C 0.828125 -6.222656 0.945312 -7.203125 1.1875 -7.953125 C 1.4375 -8.710938 1.84375 -9.273438 2.40625 -9.640625 C 2.96875 -10.003906 3.726562 -10.1875 4.6875 -10.1875 C 5.5625 -10.1875 6.492188 -10.09375 7.484375 -9.90625 L 7.984375 -9.8125 L 7.9375 -8.890625 C 6.738281 -9.085938 5.695312 -9.1875 4.8125 -9.1875 C 4.082031 -9.1875 3.507812 -9.046875 3.09375 -8.765625 C 2.6875 -8.492188 2.398438 -8.0625 2.234375 -7.46875 C 2.066406 -6.875 1.984375 -6.054688 1.984375 -5.015625 C 1.984375 -3.984375 2.066406 -3.171875 2.234375 -2.578125 C 2.398438 -1.984375 2.6875 -1.546875 3.09375 -1.265625 C 3.5 -0.984375 4.066406 -0.84375 4.796875 -0.84375 C 5.453125 -0.84375 6.144531 -0.910156 6.875 -1.046875 L 6.875 -4.140625 L 5.21875 -4.140625 L 5.21875 -5.140625 L 7.984375 -5.140625 L 7.984375 -0.203125 C 6.765625 0.0234375 5.675781 0.140625 4.71875 0.140625 Z M 4.71875 0.140625 "/></g></g></g><g fill="rgb(100%, 100%, 100%)" fill-opacity="1"><g transform="translate(81.085817, 70.857923)"><g><path d="M 3.765625 0.140625 C 2.660156 0.140625 1.875 -0.144531 1.40625 -0.71875 C 0.945312 -1.289062 0.71875 -2.195312 0.71875 -3.4375 C 0.71875 -4.78125 0.960938 -5.773438 1.453125 -6.421875 C 1.953125 -7.078125 2.726562 -7.40625 3.78125 -7.40625 C 4.75 -7.40625 5.472656 -7.125 5.953125 -6.5625 C 6.429688 -6.007812 6.671875 -5.15625 6.671875 -4 L 6.625 -3.171875 L 1.828125 -3.171875 C 1.828125 -2.578125 1.890625 -2.109375 2.015625 -1.765625 C 2.148438 -1.429688 2.375 -1.1875 2.6875 -1.03125 C 3.007812 -0.882812 3.445312 -0.8125 4 -0.8125 C 4.28125 -0.8125 4.601562 -0.816406 4.96875 -0.828125 C 5.34375 -0.847656 5.679688 -0.875 5.984375 -0.90625 L 6.40625 -0.9375 L 6.4375 -0.09375 C 5.351562 0.0625 4.460938 0.140625 3.765625 0.140625 Z M 5.59375 -4.046875 C 5.59375 -4.929688 5.453125 -5.554688 5.171875 -5.921875 C 4.890625 -6.296875 4.425781 -6.484375 3.78125 -6.484375 C 3.113281 -6.484375 2.617188 -6.285156 2.296875 -5.890625 C 1.984375 -5.503906 1.820312 -4.890625 1.8125 -4.046875 Z M 5.59375 -4.046875 "/></g></g></g><g fill="rgb(100%, 100%, 100%)" fill-opacity="1"><g transform="translate(88.408691, 70.857923)"><g><path d="M 1.046875 -7.265625 L 2.125 -7.265625 L 2.125 -6.75 C 2.550781 -6.988281 2.945312 -7.15625 3.3125 -7.25 C 3.675781 -7.351562 4.054688 -7.40625 4.453125 -7.40625 C 5.078125 -7.40625 5.554688 -7.285156 5.890625 -7.046875 C 6.234375 -6.816406 6.472656 -6.445312 6.609375 -5.9375 C 6.753906 -5.4375 6.828125 -4.734375 6.828125 -3.828125 L 6.828125 0 L 5.75 0 L 5.75 -3.796875 C 5.75 -4.484375 5.707031 -5.007812 5.625 -5.375 C 5.539062 -5.75 5.390625 -6.019531 5.171875 -6.1875 C 4.960938 -6.351562 4.65625 -6.4375 4.25 -6.4375 C 3.925781 -6.4375 3.59375 -6.394531 3.25 -6.3125 C 2.90625 -6.226562 2.625 -6.132812 2.40625 -6.03125 L 2.140625 -5.890625 L 2.140625 0 L 1.046875 0 Z M 1.046875 -7.265625 "/></g></g></g><g fill="rgb(100%, 100%, 100%)" fill-opacity="1"><g transform="translate(96.195595, 70.857923)"><g/></g></g><g fill="rgb(100%, 100%, 100%)" fill-opacity="1"><g transform="translate(99.385757, 70.857923)"><g><path d="M 4.796875 0.140625 C 3.804688 0.140625 3.019531 -0.0351562 2.4375 -0.390625 C 1.851562 -0.742188 1.4375 -1.289062 1.1875 -2.03125 C 0.945312 -2.78125 0.828125 -3.765625 0.828125 -4.984375 C 0.828125 -6.191406 0.953125 -7.175781 1.203125 -7.9375 C 1.453125 -8.695312 1.867188 -9.257812 2.453125 -9.625 C 3.035156 -10 3.816406 -10.1875 4.796875 -10.1875 C 5.765625 -10.1875 6.539062 -10 7.125 -9.625 C 7.707031 -9.257812 8.125 -8.695312 8.375 -7.9375 C 8.632812 -7.175781 8.765625 -6.179688 8.765625 -4.953125 C 8.765625 -3.722656 8.640625 -2.738281 8.390625 -2 C 8.148438 -1.269531 7.738281 -0.726562 7.15625 -0.375 C 6.582031 -0.03125 5.796875 0.140625 4.796875 0.140625 Z M 4.796875 -0.84375 C 5.535156 -0.84375 6.101562 -0.976562 6.5 -1.25 C 6.90625 -1.519531 7.191406 -1.945312 7.359375 -2.53125 C 7.523438 -3.113281 7.609375 -3.921875 7.609375 -4.953125 C 7.609375 -5.972656 7.519531 -6.785156 7.34375 -7.390625 C 7.175781 -8.003906 6.890625 -8.457031 6.484375 -8.75 C 6.078125 -9.050781 5.515625 -9.203125 4.796875 -9.203125 C 4.066406 -9.203125 3.5 -9.054688 3.09375 -8.765625 C 2.6875 -8.472656 2.394531 -8.019531 2.21875 -7.40625 C 2.050781 -6.800781 1.96875 -5.992188 1.96875 -4.984375 C 1.96875 -3.960938 2.050781 -3.15625 2.21875 -2.5625 C 2.382812 -1.96875 2.671875 -1.53125 3.078125 -1.25 C 3.492188 -0.976562 4.066406 -0.84375 4.796875 -0.84375 Z M 4.796875 -0.84375 "/></g></g></g><g fill="rgb(100%, 100%, 100%)" fill-opacity="1"><g transform="translate(108.956252, 70.857923)"><g><path d="M 1.046875 -7.265625 L 2.125 -7.265625 L 2.125 -6.75 C 2.550781 -6.988281 2.945312 -7.15625 3.3125 -7.25 C 3.675781 -7.351562 4.054688 -7.40625 4.453125 -7.40625 C 5.078125 -7.40625 5.554688 -7.285156 5.890625 -7.046875 C 6.234375 -6.816406 6.472656 -6.445312 6.609375 -5.9375 C 6.753906 -5.4375 6.828125 -4.734375 6.828125 -3.828125 L 6.828125 0 L 5.75 0 L 5.75 -3.796875 C 5.75 -4.484375 5.707031 -5.007812 5.625 -5.375 C 5.539062 -5.75 5.390625 -6.019531 5.171875 -6.1875 C 4.960938 -6.351562 4.65625 -6.4375 4.25 -6.4375 C 3.925781 -6.4375 3.59375 -6.394531 3.25 -6.3125 C 2.90625 -6.226562 2.625 -6.132812 2.40625 -6.03125 L 2.140625 -5.890625 L 2.140625 0 L 1.046875 0 Z M 1.046875 -7.265625 "/></g></g></g><g fill="rgb(100%, 100%, 100%)" fill-opacity="1"><g transform="translate(116.743156, 70.857923)"><g><path d="M 1.125 -10.421875 L 2.21875 -10.421875 L 2.21875 0 L 1.125 0 Z M 1.125 -10.421875 "/></g></g></g><g fill="rgb(100%, 100%, 100%)" fill-opacity="1"><g transform="translate(120.092829, 70.857923)"><g><path d="M 1.046875 0 Z M 1.046875 -7.265625 L 2.125 -7.265625 L 2.125 0 L 1.046875 0 Z M 1.171875 -10.109375 L 2.25 -10.109375 L 2.25 -8.84375 L 1.171875 -8.84375 Z M 1.171875 -10.109375 "/></g></g></g><g fill="rgb(100%, 100%, 100%)" fill-opacity="1"><g transform="translate(123.253995, 70.857923)"><g><path d="M 1.046875 -7.265625 L 2.125 -7.265625 L 2.125 -6.75 C 2.550781 -6.988281 2.945312 -7.15625 3.3125 -7.25 C 3.675781 -7.351562 4.054688 -7.40625 4.453125 -7.40625 C 5.078125 -7.40625 5.554688 -7.285156 5.890625 -7.046875 C 6.234375 -6.816406 6.472656 -6.445312 6.609375 -5.9375 C 6.753906 -5.4375 6.828125 -4.734375 6.828125 -3.828125 L 6.828125 0 L 5.75 0 L 5.75 -3.796875 C 5.75 -4.484375 5.707031 -5.007812 5.625 -5.375 C 5.539062 -5.75 5.390625 -6.019531 5.171875 -6.1875 C 4.960938 -6.351562 4.65625 -6.4375 4.25 -6.4375 C 3.925781 -6.4375 3.59375 -6.394531 3.25 -6.3125 C 2.90625 -6.226562 2.625 -6.132812 2.40625 -6.03125 L 2.140625 -5.890625 L 2.140625 0 L 1.046875 0 Z M 1.046875 -7.265625 "/></g></g></g><g fill="rgb(100%, 100%, 100%)" fill-opacity="1"><g transform="translate(131.040899, 70.857923)"><g><path d="M 3.765625 0.140625 C 2.660156 0.140625 1.875 -0.144531 1.40625 -0.71875 C 0.945312 -1.289062 0.71875 -2.195312 0.71875 -3.4375 C 0.71875 -4.78125 0.960938 -5.773438 1.453125 -6.421875 C 1.953125 -7.078125 2.726562 -7.40625 3.78125 -7.40625 C 4.75 -7.40625 5.472656 -7.125 5.953125 -6.5625 C 6.429688 -6.007812 6.671875 -5.15625 6.671875 -4 L 6.625 -3.171875 L 1.828125 -3.171875 C 1.828125 -2.578125 1.890625 -2.109375 2.015625 -1.765625 C 2.148438 -1.429688 2.375 -1.1875 2.6875 -1.03125 C 3.007812 -0.882812 3.445312 -0.8125 4 -0.8125 C 4.28125 -0.8125 4.601562 -0.816406 4.96875 -0.828125 C 5.34375 -0.847656 5.679688 -0.875 5.984375 -0.90625 L 6.40625 -0.9375 L 6.4375 -0.09375 C 5.351562 0.0625 4.460938 0.140625 3.765625 0.140625 Z M 5.59375 -4.046875 C 5.59375 -4.929688 5.453125 -5.554688 5.171875 -5.921875 C 4.890625 -6.296875 4.425781 -6.484375 3.78125 -6.484375 C 3.113281 -6.484375 2.617188 -6.285156 2.296875 -5.890625 C 1.984375 -5.503906 1.820312 -4.890625 1.8125 -4.046875 Z M 5.59375 -4.046875 "/></g></g></g><g fill="rgb(100%, 100%, 100%)" fill-opacity="1"><g transform="translate(138.363773, 70.857923)"><g/></g></g><g fill="rgb(100%, 100%, 100%)" fill-opacity="1"><g transform="translate(141.553935, 70.857923)"><g><path d="M 6.765625 -1 L 6.765625 0 L 1.234375 0 L 1.234375 -10.046875 L 2.34375 -10.046875 L 2.34375 -1 Z M 6.765625 -1 "/></g></g></g><g fill="rgb(100%, 100%, 100%)" fill-opacity="1"><g transform="translate(148.499797, 70.857923)"><g><path d="M 3.765625 0.140625 C 2.660156 0.140625 1.875 -0.144531 1.40625 -0.71875 C 0.945312 -1.289062 0.71875 -2.195312 0.71875 -3.4375 C 0.71875 -4.78125 0.960938 -5.773438 1.453125 -6.421875 C 1.953125 -7.078125 2.726562 -7.40625 3.78125 -7.40625 C 4.75 -7.40625 5.472656 -7.125 5.953125 -6.5625 C 6.429688 -6.007812 6.671875 -5.15625 6.671875 -4 L 6.625 -3.171875 L 1.828125 -3.171875 C 1.828125 -2.578125 1.890625 -2.109375 2.015625 -1.765625 C 2.148438 -1.429688 2.375 -1.1875 2.6875 -1.03125 C 3.007812 -0.882812 3.445312 -0.8125 4 -0.8125 C 4.28125 -0.8125 4.601562 -0.816406 4.96875 -0.828125 C 5.34375 -0.847656 5.679688 -0.875 5.984375 -0.90625 L 6.40625 -0.9375 L 6.4375 -0.09375 C 5.351562 0.0625 4.460938 0.140625 3.765625 0.140625 Z M 5.59375 -4.046875 C 5.59375 -4.929688 5.453125 -5.554688 5.171875 -5.921875 C 4.890625 -6.296875 4.425781 -6.484375 3.78125 -6.484375 C 3.113281 -6.484375 2.617188 -6.285156 2.296875 -5.890625 C 1.984375 -5.503906 1.820312 -4.890625 1.8125 -4.046875 Z M 5.59375 -4.046875 "/></g></g></g><g fill="rgb(100%, 100%, 100%)" fill-opacity="1"><g transform="translate(155.822672, 70.857923)"><g><path d="M 2.625 0.140625 C 1.957031 0.140625 1.445312 -0.046875 1.09375 -0.421875 C 0.75 -0.796875 0.578125 -1.335938 0.578125 -2.046875 C 0.578125 -2.742188 0.753906 -3.257812 1.109375 -3.59375 C 1.460938 -3.9375 2.023438 -4.144531 2.796875 -4.21875 L 5.078125 -4.4375 L 5.078125 -5.0625 C 5.078125 -5.976562 4.679688 -6.4375 3.890625 -6.4375 C 3.109375 -6.4375 2.15625 -6.375 1.03125 -6.25 L 0.984375 -7.078125 C 2.023438 -7.296875 2.96875 -7.40625 3.8125 -7.40625 C 4.632812 -7.40625 5.234375 -7.21875 5.609375 -6.84375 C 5.984375 -6.46875 6.171875 -5.875 6.171875 -5.0625 L 6.171875 -1.34375 C 6.203125 -0.988281 6.484375 -0.78125 7.015625 -0.71875 L 6.96875 0.140625 C 6.207031 0.140625 5.628906 -0.0507812 5.234375 -0.4375 C 4.378906 -0.0507812 3.507812 0.140625 2.625 0.140625 Z M 2.796875 -0.765625 C 3.453125 -0.765625 4.101562 -0.878906 4.75 -1.109375 L 5.078125 -1.21875 L 5.078125 -3.609375 L 2.9375 -3.40625 C 2.5 -3.375 2.179688 -3.25 1.984375 -3.03125 C 1.796875 -2.820312 1.703125 -2.515625 1.703125 -2.109375 C 1.703125 -1.210938 2.066406 -0.765625 2.796875 -0.765625 Z M 2.796875 -0.765625 "/></g></g></g><g fill="rgb(100%, 100%, 100%)" fill-opacity="1"><g transform="translate(163.087545, 70.857923)"><g><path d="M 1.046875 -7.265625 L 2.125 -7.265625 L 2.125 -6.265625 C 2.957031 -6.835938 3.84375 -7.222656 4.78125 -7.421875 L 4.78125 -6.3125 C 4.394531 -6.238281 3.984375 -6.117188 3.546875 -5.953125 C 3.109375 -5.796875 2.757812 -5.648438 2.5 -5.515625 L 2.140625 -5.328125 L 2.140625 0 L 1.046875 0 Z M 1.046875 -7.265625 "/></g></g></g><g fill="rgb(100%, 100%, 100%)" fill-opacity="1"><g transform="translate(168.104808, 70.857923)"><g><path d="M 1.046875 -7.265625 L 2.125 -7.265625 L 2.125 -6.75 C 2.550781 -6.988281 2.945312 -7.15625 3.3125 -7.25 C 3.675781 -7.351562 4.054688 -7.40625 4.453125 -7.40625 C 5.078125 -7.40625 5.554688 -7.285156 5.890625 -7.046875 C 6.234375 -6.816406 6.472656 -6.445312 6.609375 -5.9375 C 6.753906 -5.4375 6.828125 -4.734375 6.828125 -3.828125 L 6.828125 0 L 5.75 0 L 5.75 -3.796875 C 5.75 -4.484375 5.707031 -5.007812 5.625 -5.375 C 5.539062 -5.75 5.390625 -6.019531 5.171875 -6.1875 C 4.960938 -6.351562 4.65625 -6.4375 4.25 -6.4375 C 3.925781 -6.4375 3.59375 -6.394531 3.25 -6.3125 C 2.90625 -6.226562 2.625 -6.132812 2.40625 -6.03125 L 2.140625 -5.890625 L 2.140625 0 L 1.046875 0 Z M 1.046875 -7.265625 "/></g></g></g><g fill="rgb(100%, 100%, 100%)" fill-opacity="1"><g transform="translate(175.891711, 70.857923)"><g><path d="M 1.046875 0 Z M 1.046875 -7.265625 L 2.125 -7.265625 L 2.125 0 L 1.046875 0 Z M 1.171875 -10.109375 L 2.25 -10.109375 L 2.25 -8.84375 L 1.171875 -8.84375 Z M 1.171875 -10.109375 "/></g></g></g><g fill="rgb(100%, 100%, 100%)" fill-opacity="1"><g transform="translate(179.052878, 70.857923)"><g><path d="M 1.046875 -7.265625 L 2.125 -7.265625 L 2.125 -6.75 C 2.550781 -6.988281 2.945312 -7.15625 3.3125 -7.25 C 3.675781 -7.351562 4.054688 -7.40625 4.453125 -7.40625 C 5.078125 -7.40625 5.554688 -7.285156 5.890625 -7.046875 C 6.234375 -6.816406 6.472656 -6.445312 6.609375 -5.9375 C 6.753906 -5.4375 6.828125 -4.734375 6.828125 -3.828125 L 6.828125 0 L 5.75 0 L 5.75 -3.796875 C 5.75 -4.484375 5.707031 -5.007812 5.625 -5.375 C 5.539062 -5.75 5.390625 -6.019531 5.171875 -6.1875 C 4.960938 -6.351562 4.65625 -6.4375 4.25 -6.4375 C 3.925781 -6.4375 3.59375 -6.394531 3.25 -6.3125 C 2.90625 -6.226562 2.625 -6.132812 2.40625 -6.03125 L 2.140625 -5.890625 L 2.140625 0 L 1.046875 0 Z M 1.046875 -7.265625 "/></g></g></g><g clip-path="url(#id2)"><g fill="rgb(100%, 100%, 100%)" fill-opacity="1"><g transform="translate(186.839782, 70.857923)"><g><path d="M 3.703125 3.40625 C 2.617188 3.40625 1.847656 3.242188 1.390625 2.921875 C 0.941406 2.597656 0.71875 2.0625 0.71875 1.3125 C 0.71875 1 0.753906 0.742188 0.828125 0.546875 C 0.898438 0.347656 1.015625 0.171875 1.171875 0.015625 C 1.328125 -0.140625 1.5625 -0.335938 1.875 -0.578125 C 1.738281 -0.671875 1.632812 -0.800781 1.5625 -0.96875 C 1.5 -1.144531 1.46875 -1.332031 1.46875 -1.53125 C 1.46875 -1.65625 1.492188 -1.789062 1.546875 -1.9375 C 1.609375 -2.082031 1.742188 -2.347656 1.953125 -2.734375 C 1.191406 -3.066406 0.8125 -3.789062 0.8125 -4.90625 C 0.8125 -5.75 1.035156 -6.375 1.484375 -6.78125 C 1.941406 -7.195312 2.632812 -7.40625 3.5625 -7.40625 C 4 -7.40625 4.488281 -7.34375 5.03125 -7.21875 L 7.1875 -7.265625 L 7.1875 -6.34375 L 5.8125 -6.375 C 5.96875 -6.207031 6.082031 -6.003906 6.15625 -5.765625 C 6.238281 -5.535156 6.28125 -5.234375 6.28125 -4.859375 C 6.28125 -4.003906 6.054688 -3.390625 5.609375 -3.015625 C 5.171875 -2.648438 4.472656 -2.46875 3.515625 -2.46875 C 3.210938 -2.46875 2.960938 -2.488281 2.765625 -2.53125 C 2.691406 -2.332031 2.628906 -2.160156 2.578125 -2.015625 C 2.535156 -1.867188 2.515625 -1.742188 2.515625 -1.640625 C 2.515625 -1.390625 2.613281 -1.222656 2.8125 -1.140625 C 3.007812 -1.066406 3.316406 -1.03125 3.734375 -1.03125 L 4.296875 -1.03125 C 4.929688 -1.03125 5.445312 -0.976562 5.84375 -0.875 C 6.238281 -0.78125 6.539062 -0.585938 6.75 -0.296875 C 6.957031 -0.00390625 7.0625 0.421875 7.0625 0.984375 C 7.0625 1.828125 6.800781 2.441406 6.28125 2.828125 C 5.757812 3.210938 4.898438 3.40625 3.703125 3.40625 Z M 3.5625 -3.34375 C 4.144531 -3.34375 4.5625 -3.460938 4.8125 -3.703125 C 5.070312 -3.941406 5.203125 -4.351562 5.203125 -4.9375 C 5.203125 -5.507812 5.070312 -5.914062 4.8125 -6.15625 C 4.5625 -6.394531 4.148438 -6.515625 3.578125 -6.515625 C 2.972656 -6.515625 2.539062 -6.390625 2.28125 -6.140625 C 2.03125 -5.898438 1.90625 -5.492188 1.90625 -4.921875 C 1.90625 -4.347656 2.03125 -3.941406 2.28125 -3.703125 C 2.539062 -3.460938 2.96875 -3.34375 3.5625 -3.34375 Z M 3.796875 2.5 C 4.609375 2.5 5.171875 2.390625 5.484375 2.171875 C 5.804688 1.953125 5.96875 1.578125 5.96875 1.046875 C 5.96875 0.734375 5.910156 0.5 5.796875 0.34375 C 5.691406 0.1875 5.515625 0.078125 5.265625 0.015625 C 5.015625 -0.046875 4.65625 -0.078125 4.1875 -0.078125 L 2.609375 -0.140625 C 2.296875 0.0859375 2.082031 0.285156 1.96875 0.453125 C 1.851562 0.628906 1.796875 0.863281 1.796875 1.15625 C 1.796875 1.664062 1.941406 2.015625 2.234375 2.203125 C 2.535156 2.398438 3.054688 2.5 3.796875 2.5 Z M 3.796875 2.5 "/></g></g></g></g></svg>